{
  "accessors": [
    {
      "bufferView": 1,
      "componentType": 5126,
      "count": 2080,
      "max": [
        0.37493649125099182,
        0.3749358057975769,
        0.37636494636535645
      ],
      "min": [
        -0.37494337558746338,
        -0.3749358057975769,
        -0.37636494636535645
      ],
      "type": "VEC3"
    },
    {
      "bufferView": 1,
      "byteOffset": 24960,
      "componentType": 5126,
      "count": 2080,
      "max": [
        1,
        1,
        0.99727863073348999
      ],
      "min": [
        -1,
        -1,
        -0.99727863073348999
      ],
      "type": "VEC3"
    },
    {
      "bufferView": 0,
      "componentType": 5125,
      "count": 3120,
      "max": [
        2079
      ],
      "min": [
        0
      ],
      "type": "SCALAR"
    },
    {
      "bufferView": 1,
      "byteOffset": 49920,
      "componentType": 5126,
      "count": 568,
      "max": [
        0.37280577421188354,
        0.37280508875846863,
        0.37423616647720337
      ],
      "min": [
        -0.3728126585483551,
        -0.37280508875846863,
        -0.37423616647720337
      ],
      "type": "VEC3"
    },
    {
      "bufferView": 1,
      "byteOffset": 56736,
      "componentType": 5126,
      "count": 568,
      "max": [
        0.99518471956253052,
        0.99518471956253052,
        1
      ],
      "min": [
        -0.99518465995788574,
        -0.99518471956253052,
        -1
      ],
      "type": "VEC3"
    },
    {
      "bufferView": 0,
      "byteOffset": 12480,
      "componentType": 5125,
      "count": 852,
      "max": [
        567
      ],
      "min": [
        0
      ],
      "type": "SCALAR"
    }
  ],
  "asset": {
    "extras": {
      "author": "chroma3d (https://sketchfab.com/vendol21)",
      "license": "CC-BY-4.0 (http://creativecommons.org/licenses/by/4.0/)",
      "source": "https://sketchfab.com/3d-models/low-poly-cartoon-basketball-ball-free-555627427c054e3fa163a57f540e1b34",
      "title": "Low Poly Cartoon Basketball Ball Free"
    },
    "generator": "Sketchfab-6.51.0",
    "version": "2.0"
  },
  "bufferViews": [
    {
      "buffer": 0,
      "byteLength": 15888,
      "byteOffset": 0,
      "name": "floatBufferViews",
      "target": 34963
    },
    {
      "buffer": 0,
      "byteLength": 63552,
      "byteOffset": 15888,
      "byteStride": 12,
      "name": "floatBufferViews",
      "target": 34962
    }
  ],
  "buffers": [
    {
      "byteLength": 79440,
      "uri": "scene.bin"
    }
  ],
  "materials": [
    {
      "doubleSided": true,
      "emissiveFactor": [
        0,
        0,
        0
      ],
      "name": "MainColor",
      "pbrMetallicRoughness": {
        "baseColorFactor": [
          0.77582200000000001,
          0.16202900000000001,
          0.052860699999999997,
          1
        ],
        "metallicFactor": 0,
        "roughnessFactor": 0.82394172574614266
      }
    },
    {
      "doubleSided": true,
      "emissiveFactor": [
        0,
        0,
        0
      ],
      "name": "Lines",
      "pbrMetallicRoughness": {
        "baseColorFactor": [
          0.027209899999999999,
          0.027209899999999999,
          0.027209899999999999,
          1
        ],
        "metallicFactor": 0,
        "roughnessFactor": 0.82394172574614266
      }
    }
  ],
  "meshes": [
    {
      "name": "BasketballBall_MainColor_0",
      "primitives": [
        {
          "attributes": {
            "NORMAL": 1,
            "POSITION": 0
          },
          "indices": 2,
          "material": 0,
          "mode": 4
        }
      ]
    },
    {
      "name": "BasketballBall_Lines_0",
      "primitives": [
        {
          "attributes": {
            "NORMAL": 4,
            "POSITION": 3
          },
          "indices": 5,
          "material": 1,
          "mode": 4
        }
      ]
    }
  ],
  "nodes": [
    {
      "children": [
        1
      ],
      "name": "RootNode (gltf orientation matrix)",
      "rotation": [
        -0.70710678118654746,
        -0,
        -0,
        0.70710678118654757
      ]
    },
    {
      "children": [
        2
      ],
      "name": "RootNode (model correction matrix)"
    },
    {
      "children": [
        3
      ],
      "matrix": [
        1,
        0,
        0,
        0,
        0,
        0,
        1,
        0,
        0,
        -1,
        0,
        0,
        0,
        0,
        0,
        1
      ],
      "name": "186be39861f14b3990c31c416fa6c58f.fbx"
    },
    {
      "children": [
        4
      ],
      "name": "RootNode"
    },
    {
      "children": [
        5,
        6
      ],
      "matrix": [
        100,
        0,
        0,
        0,
        0,
        -1.6292067939183141e-05,
        -99.999999999998678,
        0,
        0,
        99.999999999998678,
        -1.6292067939183141e-05,
        0,
        0,
        0,
        0,
        1
      ],
      "name": "BasketballBall"
    },
    {
      "mesh": 0,
      "name": "BasketballBall_MainColor_0"
    },
    {
      "mesh": 1,
      "name": "BasketballBall_Lines_0"
    }
  ],
  "scene": 0,
  "scenes": [
    {
      "name": "OSG_Scene",
      "nodes": [
        0
      ]
    }
  ]
}

